<?xml version="1.0" encoding="utf-8"?>
<!-- Generator: Adobe Illustrator 21.0.2, SVG Export Plug-In . SVG Version: 6.00 Build 0)  -->
<svg version="1.1" id="Layer_1" xmlns="http://www.w3.org/2000/svg" xmlns:xlink="http://www.w3.org/1999/xlink" x="0px" y="0px"
	 viewBox="0 0 800 800" style="enable-background:new 0 0 800 800;" xml:space="preserve">
<style type="text/css">
	.st0{fill:#FF5B00;}
	.st1{fill:#FF8000;}
	.st2{fill:#FCB97C;}
	.st3{fill:#12491D;}
	.st4{fill:#41AA54;}
</style>
<g id="XMLID_5_">
	<g>
		<path d="M711.8,386.5c2.4,12,3.3,23.9,2.5,35.5l-3.3-0.2c-0.5,3.9-3.2,6.4-6.8,8.3c1.1-6.2,1.5-12.7,1.7-19.7
			c-0.4-12.1-2.2-24.6-5.6-36.8c1.9-2.1,3-4.7,3-7.9c0-1.1-0.2-2.3-0.5-3.4l2.9-0.8C707.9,369.8,710.1,378.1,711.8,386.5z"/>
		<path d="M655.4,520.8c-0.8,0.4-11.6,5.9-22.2,8.2c9-7.8,17.6-16,24.2-25.6c12.7-18.9,17.8-40.5,18.3-63.4l9.2,0.1
			c0.1-1.7,1.5-3,3.4-4c0,0,0,0,0,0c0.6,5.6,1.3,11.2,2,16.8c0.2,1.5,0.9,2.9,1.4,4.3c1.2-1,2.7-1.7,3.5-2.9
			c4.7-7.5,7.4-15.5,9-24.2c3.6-1.9,6.3-4.4,6.8-8.3l3.3,0.2c-1.1,16.6-5.6,32.9-14.4,48.4c-3.6,6.4-7.3,12.9-11.9,18.5
			c-8.2,10.1-17.6,19.3-25.8,29.5c-1.3,1.7-2.7,3.3-4.1,4.9L655.4,520.8z"/>
		<path class="st0" d="M704.2,430.1c-1.5,8.7-4.3,16.7-9,24.2c-0.8,1.2-2.3,1.9-3.5,2.9c-0.5-1.4-1.2-2.8-1.4-4.3
			c-0.7-5.6-1.4-11.2-2-16.8C692.4,434,699.2,432.7,704.2,430.1z"/>
		<path d="M700.3,373.6c-2.5-9-5.8-17.9-10.2-26.5c6,3.2,11.1,9.5,12.7,15.3c0.3,1.2,0.5,2.3,0.5,3.4
			C703.3,368.9,702.1,371.4,700.3,373.6z"/>
		<path class="st1" d="M689.9,346.7c0.1,0.1,0.1,0.2,0.2,0.4c-2.5-1.4-5.3-2.2-8-2.2c-7.2,0-12.2,4.3-13.3,9.6
			c-0.9-1.6-1.8-3.2-2.6-4.7c-2.5-5-3.6-8.3,3.2-10.9C683.4,333.6,683.1,333.4,689.9,346.7z"/>
		<path class="st2" d="M684.7,381.8c-1.7,0.5-2.9,0.7-3.9,0.4c-0.1-0.8-0.2-1.5-0.4-2.3c-1.7-8.9-7-17.2-11.7-25.5
			c1.1-5.3,6.2-9.6,13.3-9.6c2.7,0,5.4,0.8,8,2.2c4.4,8.7,7.7,17.6,10.2,26.5C696.9,377.4,691,379.8,684.7,381.8z"/>
		<path class="st1" d="M688.3,436.1c-2.1-18-4.1-36.1-7.5-53.9c1,0.3,2.2,0.1,3.9-0.4c6.3-1.9,12.1-4.4,15.5-8.2
			c3.4,12.2,5.2,24.6,5.6,36.8c-0.1,7-0.6,13.5-1.7,19.7C699.2,432.7,692.4,434,688.3,436.1C688.4,436.1,688.4,436.1,688.3,436.1z"
			/>
		<path class="st0" d="M680.6,266.8c1.3,27.7-11.4,49.2-30.7,66.6c-10.6,9.6-25.5,9-39.7,8c-21-1.5-37.5-11-53.7-23.8
			c-13.2-10.5-29.5-17.4-44.5-25.5c-8.8-4.8-16.2-10.4-16.1-21.5c0-4.8,0.1-9.5,0.1-14.3c11.8,9.1,52.6,39.8,74.1,43.5
			c25.3,4.5,67.7,14.9,83.4-5.9C653.5,293.9,674.5,282.2,680.6,266.8z"/>
		<path d="M668.8,354.5c4.7,8.3,10,16.6,11.7,25.5c0.2,0.8,0.3,1.5,0.4,2.3c-2.9-0.8-4.3-6-11.2-20.6
			C668.5,359.2,668.3,356.7,668.8,354.5z"/>
		<path class="st2" d="M631.3,363c19.3,0,35.3,7.5,34.9,16.8c-0.6,12.8-21,27.8-35,25.8c-28.7-4.1-37.1-8.9-34.8-25.8
			C597.6,370.6,612,363,631.3,363z"/>
		<path class="st1" d="M514.6,118.5c26.1-15.8,53.9-13.3,80.9-1.8c45.9,19.5,66.5,58.5,77.5,104c3.6,14.7,5.1,30,7.6,45
			c0,0.4,0,0.8,0,1.1c-6.1,15.4-27.2,27.1-27.2,27.1c-15.7,20.8-58.1,10.4-83.4,5.9c-21.5-3.8-62.3-34.4-74.1-43.5
			c0.3-17.4,0.7-34.8,0.4-52.2c-0.3-14.8-0.8-29.8-3.6-44.3C489,139.5,500,127.3,514.6,118.5z M631.1,159.2c0-12.7-9.7-16-41-33.4
			c-32-17.7-75.5,12.6-77.8,33.4c-1.4,12.7,26.6,23.1,59.4,23.1C604.5,182.3,631.1,172,631.1,159.2z"/>
		<path class="st3" d="M630.2,740.9c-18.7-15-40.9-10-62.1-11.5c-10.7-0.8-21.5-3.4-31.9-6.5c-15.7-4.6-31.9-8.5-46.3-15.9
			c-22.8-11.8-38.1-31.3-46.3-55.8c-0.6-2,0-4.9,1-6.9c3.4-7.4,8.3-14.2,10.6-21.9c3.1-10,9.8-13.7,19-16c0,0,96.1,38,156.4,125
			c0.8,2.4,1.7,4.8,2.6,7.2c0.4,1,0,2.2-0.1,3.4C632.1,741.5,630.9,741.5,630.2,740.9z"/>
		<path class="st2" d="M590.1,125.8c31.3,17.4,41,20.6,41,33.4s-26.6,23.1-59.4,23.1c-32.8,0-60.8-10.4-59.4-23.1
			C514.6,138.4,558.2,108.1,590.1,125.8z"/>
		<path class="st1" d="M663.7,370.8c9.4,17,11.2,35.6,11.6,53.7c0.3,5.2,0.4,10.4,0.4,15.5c-0.4,22.9-5.5,44.6-18.3,63.4
			c-6.5,9.5-15.1,17.8-24.2,25.6c-3.7,0.8-7.4,1.2-10.6,0.8c-10.3-1.1-44.6-18.2-57.1-24.6c4.6-7.2,8.8-14.8,11.7-22.7
			c12.9-35.1,13.4-70.8,3.3-106.8c-2.3-8.3,6.4-19.7,16-20.2c7.2-0.4,14.3,0.8,21.5,0.9c5,0.1,10.2,0.5,14.9-0.6
			C647.7,352.6,655.7,356.2,663.7,370.8z M666.2,379.8c0.4-9.3-15.6-16.8-34.9-16.8c-19.3,0-33.6,7.6-34.9,16.8
			c-2.3,16.9,6,21.7,34.8,25.8C645.2,407.6,665.6,392.7,666.2,379.8z"/>
		<path class="st0" d="M619.1,541c-16.3,13.8-33.2,27.4-54.9,32.1c-10.3,2.3-20.5,2.8-29.8-3.5c-4.9-3.3-7.1-7.3-3.2-13
			c11.2-16.6,22.7-33,33.5-49.9c0.3-0.5,0.6-0.9,0.9-1.4c12.5,6.4,46.9,23.5,57.1,24.6c3.2,0.4,6.9,0,10.6-0.8
			C628.6,533.1,623.8,537,619.1,541z"/>
		<path class="st4" d="M618.2,699.4c4.9,10.3,8.6,21.1,12.4,31.9c-60.3-87-156.4-125-156.4-125c16.9-4.2,33.7-9,50.5-13.5
			c3-0.8,6.1-0.9,10.4-1.5c1.3,0.6,4,1,5.5,2.5c14.2,15.1,27.6,31.2,42.6,45.5C600.7,656.2,608.2,678.5,618.2,699.4z"/>
		<path class="st1" d="M566.1,372.6c17.3,46.5,6.4,88.9-17.3,128.8c-32.5,31.9-66.9,19.9-77.1,19.4c-17-0.9-46-9.6-69-17.8
			c-27.2-9.7-53.2-61.3-60.7-77.1c1.4-27.8,4.8-53.7,14.4-78.5c14.6-37.8,36.7-53.9,76.8-49c30.7,3.8,61.3,9,90,21.5
			C546.6,330,557.8,350.2,566.1,372.6z M465.6,400.5c68.3-1.2,90-19.9,73.1-41.6c-8.8-11.2-36.3-32.4-73.1-41.6
			c-51.3-12.8-83.9,14.9-73.1,41.6C401.1,380.2,425.2,401.2,465.6,400.5z"/>
		<path class="st0" d="M548.8,501.4c-1.1,1.9-2.3,3.8-3.5,5.7c-13.2,21-29.2,40.3-44.8,59.6c-9.5,11.8-24.4,14.5-38.4,15.1
			c-37.9,1.5-72.3-8.3-100.1-35.7c-3.6-3.5-6.7-8-8.7-12.6c-10.8-24.8-15.7-50.6-12.4-73.2c0.1-4.6,0.2-9.2,0.2-13.7
			c0.2-7,0.4-14,0.8-20.8c7.5,15.8,33.5,67.4,60.7,77.1c22.9,8.2,52,17,69,17.8C481.9,521.3,516.3,533.3,548.8,501.4z"/>
		<path class="st2" d="M538.6,358.9c17,21.6-4.8,40.4-73.1,41.6c-40.4,0.7-64.5-20.3-73.1-41.6c-10.8-26.7,21.8-54.4,73.1-41.6
			C502.3,326.5,529.9,347.7,538.6,358.9z"/>
		<path class="st1" d="M530.8,69.1c-15.4,29.6-67.8,28.2-98.4,24.6c-28.2-12.1-57-20.7-88.3-18.5c-1.9,0.2-3.8,0.2-5.7,0.3
			c0.9-2,1.7-4,2.7-5.9c12.5-21.9,28.5-39.8,51.7-48.6c8.9,13.2,36.3,42.2,89.8,7.2C502.2,37.9,519.5,52,530.8,69.1z"/>
		<path class="st1" d="M239,175.7c13.1-40.6,41.3-66.5,79.6-82c8-3.2,18.2-2.6,27.1-1.6c20.7,2.2,41.5,4.2,61.9,8.1
			c2.5,0.5,5,1,7.5,1.5c31,6.8,48.5,29.1,56.2,58.5c4.1,15.6,4.6,32.2,5.7,40.9c0.4,19-1.1,34.6-5.9,48.3
			c-10.7,3.3-32.9,9.6-44.1,8.6c-45.9-4.3-56.6,6.9-75.3,7c-25.9,0.1-35.5-14.8-41.3-19.5c-18.1-14.7-68.3-22.1-81.1-23.8
			c0.1-12.6,3.2-25,7-37.3C237.2,181.5,238.1,178.6,239,175.7z M365.2,106.9c-47.7-3.5-69.5-1.9-81.7,22.6
			c-9.8,19.7,39.4,31.8,81.7,31.8c62.7,0,89.5-9.6,73.8-27.2C429.1,122.9,405.9,109.9,365.2,106.9z"/>
		<path class="st0" d="M432.3,93.8c30.6,3.6,83,5,98.4-24.6c1.1,1.7,2.2,3.4,3.2,5.2c2.2,3.9,0.1,14.6-3.1,16.4
			c-15.5,8.3-32,14.7-48.7,22c-16.3-6.1-31.6-11.1-46.3-17.5C434.7,94.7,433.5,94.3,432.3,93.8z"/>
		<path class="st0" d="M471.2,249.4c-3.2,9.2-8,17.4-14.7,25.2c-6,6.9-12.8,7-19.7,5.7c-25.3-4.9-46.9,1.7-65.7,19
			c-4.7,4.4-9.9,8.3-14.6,12.6c-4.5,4.1-15.1,3.3-21.9-2.7c-5.1-4.5-10.7-9.1-14.1-14.8c-10.5-17.6-27.9-23.7-45.9-28.9
			c-7.7-2.2-15.7-3.5-23.7-4.3c-9.8-0.9-14.6-6.5-17.6-15.2c-2.9-8.3-4-16.3-3.9-24.3c12.8,1.7,63,9.1,81.1,23.8
			c5.8,4.7,15.4,19.6,41.3,19.5c18.7-0.1,29.4-11.3,75.3-7C438.3,259.1,460.5,252.8,471.2,249.4z"/>
		<path class="st2" d="M439.1,134.1c15.6,17.6-11.1,27.2-73.8,27.2c-42.4,0-91.6-12.1-81.7-31.8c12.3-24.6,34-26.1,81.7-22.6
			C405.9,109.9,429.1,122.9,439.1,134.1z"/>
		<path class="st2" d="M482.5,28.4c-53.5,34.9-80.8,5.9-89.8-7.2c3.4-1.3,6.8-2.4,10.4-3.3C428.5,11.7,457.4,16.3,482.5,28.4z"/>
		<path class="st4" d="M376.3,586c0,0-48.1,12.3-71.2,183.1c-1-1.6-2.2-3.1-2.8-4.8c-11.7-31.7-26.9-62.3-27.7-97.1
			c0-2-0.4-4-0.4-5.9c-0.1-3,0-5.9,0-8.9c-1.1-23.8,7.6-42.5,28-56.1c7.9-5.3,13.9-13.4,20.9-20.1c1.3-1.3,3.4-2.3,5.3-2.4
			C345.6,572.4,360.9,579.8,376.3,586z"/>
		<path class="st0" d="M328.4,514.3c4,22.1-19.3,42-41.3,43.1c-23.3,1.2-43.5-8.9-64.5-17.5c-55.4-22.6-85.4-82.1-84.4-140.3
			c6.9,29.7,27.1,78.9,81.9,78.9c56.9,0,92.6-20.4,104.9-28.7c-0.4,7.2-0.8,14.3-1,21.4C323.5,485.6,325.8,500.1,328.4,514.3z"/>
		<path class="st1" d="M321.1,66c-2.3,2.3-4.4,5-7,6.9c-2.1,1.5-4.2,3-6.4,4.5c1-5.1-3.5-8.2-10.4-9.4c4.6-1.2,9.2-2.4,13.8-3.4
			C314.3,63.7,317.8,65.4,321.1,66z"/>
		<path class="st3" d="M309.3,765.3c-1.2,1.5-2.7,2.7-4.1,4c0-0.1-0.1-0.1-0.1-0.2C328.1,598.3,376.3,586,376.3,586
			c19.5,7.8,38.8,15.4,60.1,16.1c1.3,0.1,3.4,2.8,3.4,4.1c-0.7,20.6-12.6,36.5-24.1,52c-18.9,25.6-46.5,41.8-69.4,63
			C332.3,734.2,321.6,750.5,309.3,765.3z"/>
		<path class="st2" d="M297.4,67.9c6.8,1.3,11.4,4.3,10.4,9.4c-10.2,7.2-20.7,14-30.9,21.3c-0.2,0.1-0.4,0.2-0.7,0.3
			c-27.4,14.5-60.8,18.5-56.8,2.4c4-2.4,8-4.9,12-7.4c13.3-8.3,26.3-16.1,41.6-19.7C281.2,72.4,289.3,70.1,297.4,67.9z"/>
		<path d="M307.8,77.3c-0.5,2.8-2.8,6.3-7.4,10.4c-6,5.4-14.6,6.4-23.5,10.9C287.1,91.4,297.6,84.5,307.8,77.3z"/>
		<path class="st2" d="M253.5,287.4c30-1.2,45.8,20.3,41.5,41.5c-3.6,17.8-12.4,30.5-46.4,30.6c-31.1,0.1-43.8-11.2-49.8-25.5
			C188.7,310,222.8,288.6,253.5,287.4z"/>
		<path d="M641.1,730.3c3.5,9.1,4.7,19.2,6.5,28.9c0.3,1.5-0.9,3.9-2.2,5c-0.7,0.6-3.4,0.1-4.5-0.8c-16.3-14.5-35.9-20.7-57.1-20.1
			c-30.8,0.9-59.4-7.9-87.3-18.7c-20.8-8.1-37.1-24.1-52.6-40.1c-2.3-2.3-4.2-5.5-7-6.8c-2.6-1.2-7.1-1.7-9-0.3
			c-27.4,20.4-55.9,39.7-81.2,62.4c-15.3,13.8-25.6,33.3-38.3,50.1c-1.9,2.5-4.4,4.7-6.6,7c-1.9-2.5-4.9-4.6-5.7-7.4
			c-14.9-53.5-36-105.8-33.4-162.9c0.4-10-8.2-10.4-14.8-11.6c-7-1.3-74.1-1.7-100.1-5c-24.2-3-48.2-9-71.9-15
			c-9-2.3-17.1-8.1-25.4-12.6c-1.5-0.8-3.2-3.8-2.7-4.9c1-2.3,3-4.8,5.1-5.9c10.4-5.2,21.8-8.7,31.2-15.2
			c10.5-7.2,58.1-37.9,65.6-51.5c-4.1-13.8-18-37.7-21.5-51.6c-5.6-21.8-12.4-42.9-23.6-62.7c-15-26.5-17.4-55.7-13.7-85.3
			c4.1-32.5,16-61.3,38.2-86.5c8.3-9.4,11-24.2,14.7-37c4-13.9,9.2-26.9,15.8-38.9l5.1,2.8c0,0,0.1,3.8,1.8,9
			c-4.1,7.7-7.1,16.1-8,25.8c3,8,5.6,16.2,9.2,24c0.9,2,4.8,3.8,7.4,3.8c6.5,0.2,13,0.3,19.5,0.2l0,8.8
			c-24.9,0.4-47.3,5.3-64.1,23.3c-1,0.9-1.8,1.9-2.6,2.9c-13.1,15.6-17.6,35.2-21.6,54.7c-1.1,5.2-2,10.4-2.7,15.6c0,0,0,0,0,0.2
			c0,0.4-0.2,1.4-0.3,3c0,0.3,0,0.6-0.1,0.8c-1.7,16.6-0.5,33.2,6.8,49.1c1.9,4.1,8.2,6.2,12.5,9.2c2.5-3.6,6.2-6.8,7.3-10.8
			c4.7-17.7,12.7-33.1,23.6-46.7l8.8,3.5c-4.2,5-7.8,10.6-10.6,16.9c-8.6,18.8-12.9,39.5-13.2,60.5c-1,58.1,29,117.6,84.4,140.3
			c21,8.6,41.1,18.7,64.5,17.5c22-1.1,45.3-21,41.3-43.1c-2.6-14.2-4.9-28.7-4.4-43c0.2-7.2,0.6-14.3,1-21.4
			c3.2-2.2,4.8-3.5,4.8-3.5l11.5,0.2c-0.1,4.5-0.2,9.1-0.2,13.7c-3.3,22.7,1.6,48.5,12.4,73.2c2,4.6,5.1,9.1,8.7,12.6
			c27.8,27.4,62.2,37.3,100.1,35.7c14-0.6,28.8-3.4,38.4-15.1c15.7-19.3,31.6-38.6,44.8-59.6c1.2-1.9,2.4-3.8,3.5-5.7
			c0.4-0.4,0.8-0.8,1.3-1.3l10.8,2.8c0,0,1.7,0.9,4.7,2.4c-0.3,0.5-0.6,0.9-0.9,1.4c-10.8,16.9-22.3,33.3-33.5,49.9
			c-3.8,5.7-1.7,9.7,3.2,13c9.3,6.3,19.5,5.7,29.8,3.5c21.7-4.7,38.6-18.3,54.9-32.1c4.7-4,9.4-7.9,14.1-11.9
			c10.6-2.3,21.3-7.8,22.2-8.2l2.8,2.5c-20.1,23.1-44.9,40.1-70.7,56.2c-4.8,3-9,7.3-12.5,11.7c-1.3,1.7-0.8,6.3,0.5,8.4
			c10.7,16.7,23.7,32.2,32.3,49.9C620.6,675.6,630.7,703.1,641.1,730.3z M630.6,731.3c-3.8-10.8-7.5-21.6-12.4-31.9
			c-10-20.9-17.5-43.2-35-60.1c-14.9-14.4-28.3-30.4-42.6-45.5c-1.5-1.6-4.2-1.9-5.5-2.5c-4.3,0.6-7.4,0.8-10.4,1.5
			c-16.9,4.5-33.6,9.3-50.5,13.5c-9.2,2.3-15.9,6.1-19,16c-2.3,7.7-7.2,14.6-10.6,21.9c-0.9,2.1-1.6,4.9-1,6.9
			c8.2,24.6,23.6,44.1,46.3,55.8c14.4,7.4,30.6,11.3,46.3,15.9c10.4,3,21.2,5.7,31.9,6.5c21.2,1.5,43.4-3.4,62.1,11.5
			c0.7,0.6,1.9,0.6,2.9,0.9c0.1-1.1,0.5-2.4,0.1-3.4C632.3,736.1,631.4,733.7,630.6,731.3z M274.2,652.4c0,3-0.1,6,0,8.9
			c0,2,0.4,4,0.4,5.9c0.8,34.8,16,65.4,27.7,97.1c0.6,1.7,1.8,3.2,2.8,4.8c0,0.1,0.1,0.1,0.1,0.2c1.4-1.3,2.9-2.5,4.1-4
			c12.3-14.8,23-31.1,37-44c22.9-21.2,50.5-37.4,69.4-63c11.5-15.5,23.3-31.4,24.1-52c0-1.4-2.1-4-3.4-4.1
			c-21.3-0.7-40.7-8.3-60.1-16.1c-15.4-6.2-30.6-13.6-48-12.3c-1.8,0.1-3.9,1.1-5.3,2.4c-7,6.7-13,14.9-20.9,20.1
			C281.7,609.8,273.1,628.5,274.2,652.4z M305.8,573.5c-0.9,0-1.9,0-2.8,0c-8.9,0-17.9,0.8-26.7-0.2c-17.8-2-34.3-6.9-50-13.9
			c-16.6-7.4-32.3-17.1-47.4-28.1c-5.5-4-10-12.3-18.8-8c-8.7,4.3-17.6,8.8-25.5,14.4c-16.9,11.9-33.2,24.7-49.8,37
			c-2.4,1.8-5.3,3.1-7.9,4.6c3,1.4,5.9,3.2,9,4.2c41.2,12.7,83.7,15.9,130.4,17.9c10.1-0.7,24.2-1.1,38.1-3
			c18.7-2.5,36.6-7.8,49.9-22.6C304.8,575.2,305.3,574.3,305.8,573.5z"/>
		<path class="st1" d="M295,328.9c4.3-21.2-11.5-42.7-41.5-41.5c-30.7,1.2-64.8,22.6-54.7,46.6c6,14.3,18.7,25.6,49.8,25.5
			C282.6,359.3,291.4,346.6,295,328.9z M195.9,295.7c21.3-12,43.7-20.8,68.8-19.1c26.7,1.7,42.8,18,53.2,41
			c9.7,21.2,13.7,43.6,12.1,66.9c-1.6,21.8-3.6,43.6-4.9,65.4c-12.3,8.3-48,28.6-104.9,28.7c-54.8,0-75-49.2-81.9-78.9
			c0.3-20.9,4.7-41.7,13.2-60.5c2.9-6.3,6.5-11.9,10.6-16.9C171.3,311.3,183.2,302.9,195.9,295.7z"/>
		<path class="st1" d="M219.4,101.3c-4,16,29.4,12.1,56.8-2.4c0.2-0.1,0.4-0.2,0.7-0.3c-7.5,5.3-14.9,10.7-21.9,16.6
			c-22.1,18.3-31.2,43.7-36.6,70.6c-36.3-0.7-48-19.3-51.8-30.8c4.6-8.5,10.4-16.1,16.3-23.6C192.9,118.4,205.9,109.7,219.4,101.3z"
			/>
		<path d="M273,74.3c-15.3,3.6-28.3,11.4-41.6,19.7c-4,2.5-8,4.9-12,7.4c1.2-4.8,5.7-11.3,14.5-19.8c6-5.7,32.2-10.2,42.3-12.6
			c7.4-1.7,15.2-2.1,21.2-1.1C289.3,70.1,281.2,72.4,273,74.3z"/>
		<path d="M321.1,66c-3.3-0.6-6.9-2.3-9.9-1.5c-4.6,1.1-9.2,2.2-13.8,3.4c-6-1.1-13.8-0.7-21.2,1.1c-10.1,2.4-36.3,6.9-42.3,12.6
			c-8.9,8.5-13.4,15-14.5,19.8c-13.5,8.3-26.5,17.1-36.5,29.9c-5.9,7.6-11.7,15.2-16.3,23.6c-1.7-5.2-1.8-9-1.8-9l-5.1-2.8
			c12.5-23,30-42.6,52.5-58.6c25.1-17.8,53.4-26.7,83.8-30.6c16.7-2.2,34.8-0.8,49.1-12.7c8.2-6.8,15.3-15,24.1-20.7
			C386.1,9.8,404.6,4.5,424.9,4c23.4-0.6,45.1,4.7,65,14.9l-2.7,6.4c-1.6,1.1-3.2,2.2-4.7,3.2c-25.1-12.1-54-16.7-79.3-10.5
			c-3.6,0.9-7.1,2-10.4,3.3c-23.1,8.8-39.2,26.7-51.7,48.6c-1.1,1.9-1.8,3.9-2.7,5.9c1.9-0.1,3.8-0.1,5.7-0.3
			c31.2-2.2,60,6.4,88.3,18.5c-12.8-1.5-21.7-3.4-22.6-3.6l-2,10c-20.4-3.9-41.2-5.9-61.9-8.1c-8.9-1-19.1-1.6-27.1,1.6
			c-38.4,15.5-66.6,41.4-79.6,82c-0.9,2.9-1.9,5.8-2.8,8.7l-8.2,1.1c-3.4,0.2-6.6,0.3-9.7,0.2c5.3-26.9,14.5-52.2,36.6-70.6
			c7-5.8,14.4-11.3,21.9-16.6c8.9-4.6,17.5-5.5,23.5-10.9c4.5-4.1,6.8-7.5,7.4-10.4c2.1-1.5,4.2-3,6.4-4.5
			C316.8,71,318.8,68.3,321.1,66z"/>
		<path class="st4" d="M178.9,531.3c15.1,11,30.8,20.7,47.4,28.1c-52.4,38.6-149.5,20-149.5,20c2.7-1.5,5.5-2.8,7.9-4.6
			c16.6-12.3,32.9-25.1,49.8-37c7.9-5.6,16.8-10.2,25.5-14.4C168.8,519,173.4,527.3,178.9,531.3z"/>
		<path class="st0" d="M218.4,185.7c-0.8,3.6-1.4,7.3-2,11c-0.6,3.3-0.6,6.7-1.2,10c-0.2,0.8-1.7,1.9-2.6,1.9
			c-5.9,0-11.9,0.1-17.9,0.1c-6.5,0-12.9,0-19.5-0.2c-2.6-0.1-6.5-1.8-7.4-3.8c-3.6-7.8-6.2-16-9.2-24c0.9-9.7,3.9-18.1,8-25.8
			C170.4,166.5,182.1,185,218.4,185.7z"/>
		<path class="st2" d="M167.7,226.1c23.5-0.9,35.9,15.9,32.5,32.5c-2.9,13.9-9.8,23.9-36.4,24c-24.4,0.1-34.4-8.8-39-20
			c-2.8-6.8-1.2-13.2,3.2-18.8c0.8-1,1.7-2,2.6-2.9C139.1,232.5,153.9,226.6,167.7,226.1z"/>
		<path d="M673,220.7c-11-45.6-31.6-84.5-77.5-104c-27.1-11.5-54.8-14-80.9,1.8c-14.6,8.8-25.6,21-21.8,41.4
			c2.7,14.5,3.3,29.5,3.6,44.3c0.3,17.4-0.1,34.8-0.4,52.2c0,4.8-0.1,9.5-0.1,14.3c-0.1,11.1,7.3,16.7,16.1,21.5
			c15.1,8.1,31.3,15,44.5,25.5c16.2,12.9,32.8,22.4,53.7,23.8c14.2,1,29.1,1.6,39.7-8c19.3-17.4,32-38.9,30.7-66.6
			c0-0.4,0-0.8,0-1.1C678.1,250.7,676.6,235.4,673,220.7z M342,425.8c-0.4,6.8-0.6,13.7-0.8,20.8l-11.5-0.2c0,0-1.6,1.3-4.8,3.5
			c1.3-21.8,3.3-43.5,4.9-65.4c1.6-23.3-2.4-45.7-12.1-66.9c-10.4-23-26.5-39.3-53.2-41c-25-1.6-47.5,7.1-68.8,19.1
			c-12.8,7.2-24.7,15.6-33.8,26.6l-8.8-3.5c6.5-8.1,14-15.5,22.5-22.5c10.9-8.9,22.7-18.3,29.5-30.1c6.3-11,6.4-25.5,9.2-38.5
			c1.5-6.8-1-10-8.2-9.5c-4.1,0.2-8.3-0.4-11.6-0.6l0-8.8c6,0,11.9-0.1,17.9-0.1c0.9,0,2.5-1.1,2.6-1.9c0.6-3.3,0.6-6.7,1.2-10
			c0.6-3.7,1.3-7.4,2-11c3,0.1,6.3,0,9.7-0.2l8.2-1.1c-3.8,12.4-6.8,24.7-7,37.3c0,8,1.1,16.1,3.9,24.3c3,8.7,7.8,14.2,17.6,15.2
			c8,0.8,16,2.1,23.7,4.3c18,5.2,35.4,11.2,45.9,28.9c3.4,5.7,8.9,10.4,14.1,14.8c6.9,6,17.4,6.8,21.9,2.7
			c4.7-4.3,9.9-8.3,14.6-12.6c18.8-17.3,40.4-23.8,65.7-19c7,1.3,13.8,1.2,19.7-5.7c6.7-7.7,11.5-16,14.7-25.2
			c4.8-13.6,6.3-29.3,5.9-48.3c-1.1-8.7-1.6-25.3-5.7-40.9c-7.7-29.4-25.2-51.8-56.2-58.5c-2.5-0.5-5-1.1-7.5-1.5l2-10
			c0.9,0.2,9.8,2.1,22.6,3.6c1.2,0.5,2.3,1,3.5,1.5c14.6,6.4,29.9,11.4,46.3,17.5c16.8-7.3,33.3-13.7,48.7-22
			c3.2-1.8,5.3-12.5,3.1-16.4c-1-1.7-2.1-3.5-3.2-5.2c-11.2-17.2-28.6-31.3-48.2-40.7c1.5-1,3.1-2.1,4.7-3.2l2.7-6.4
			c4.4,2.2,8.7,4.7,12.8,7.4c13.5,8.7,26.3,20,36.1,32.7c16.6,21.6,38.2,34.3,62.3,45.4c32.3,14.9,57.6,38,67.8,73.6
			c6.8,24,13.7,48,18.2,72.5c4.4,23.8,4.7,48.3,8.9,72.1c2.3,13.2,6.1,26,9.6,38.9l-2.9,0.8c-1.6-5.8-6.7-12-12.7-15.3
			c-0.1-0.1-0.1-0.2-0.2-0.4c-6.8-13.3-6.5-13.1-20.4-7.9c-6.9,2.5-5.8,5.9-3.2,10.9c0.8,1.6,1.7,3.2,2.6,4.7
			c-0.5,2.3-0.2,4.7,0.9,7.1c6.9,14.6,8.3,19.7,11.2,20.6c3.4,17.8,5.3,35.9,7.5,53.9c-2,1-3.3,2.3-3.4,4l-9.2-0.1
			c0.1-5.1,0-10.3-0.4-15.5c-0.4-18.2-2.2-36.7-11.6-53.7c-8.1-14.6-16.1-18.2-30.7-14.8c-4.8,1.1-10,0.7-14.9,0.6
			c-7.2-0.2-14.3-1.3-21.5-0.9c-9.5,0.5-18.3,11.9-16,20.2c10,36,9.6,71.7-3.3,106.8c-2.9,7.9-7.2,15.5-11.7,22.7
			c-2.9-1.5-4.7-2.4-4.7-2.4l-10.8-2.8c-0.4,0.4-0.8,0.9-1.3,1.3c23.7-39.8,34.6-82.3,17.3-128.8c-8.3-22.5-19.5-42.6-43-52.8
			c-28.7-12.5-59.3-17.7-90-21.5c-40.1-5-62.2,11.2-76.8,49C346.8,372.1,343.4,398,342,425.8z"/>
		<path class="st1" d="M163.9,282.6c26.6,0,33.5-10,36.4-24c3.4-16.6-9-33.5-32.5-32.5c-13.9,0.5-28.6,6.4-37.1,14.8
			c16.8-17.9,39.3-22.9,64.1-23.3c3.3,0.2,7.4,0.8,11.6,0.6c7.2-0.4,9.7,2.8,8.2,9.5c-2.8,13-2.9,27.5-9.2,38.5
			c-6.8,11.8-18.6,21.2-29.5,30.1c-8.5,6.9-16.1,14.4-22.5,22.5c-10.9,13.6-18.8,29-23.6,46.7c-26.8-8.8-27.3-37-26.5-47.5
			c0-0.3,0-0.6,0.1-0.8c0.1-1,0.2-1.9,0.3-3c0-0.1,0-0.2,0-0.2c0.7-5.2,1.6-10.4,2.7-15.6c4-19.4,8.5-39,21.6-54.7
			c-4.4,5.6-6,12.1-3.2,18.8C129.5,273.8,139.5,282.7,163.9,282.6z"/>
		<path class="st0" d="M129.7,365.5c-1.1,4-4.8,7.2-7.3,10.8c-4.3-3-10.6-5.1-12.5-9.2c-7.2-15.9-8.5-32.5-6.8-49.1
			C102.4,328.5,103,356.7,129.7,365.5z"/>
		<path d="M103.6,314.2c-0.1,1-0.2,2-0.3,3C103.4,315.6,103.6,314.6,103.6,314.2z"/>
		<path class="st3" d="M76.8,579.4c0,0,97.1,18.5,149.5-20c15.7,7,32.2,11.9,50,13.9c8.8,1,17.8,0.2,26.7,0.2c0.9,0,1.9,0,2.8,0
			c-0.5,0.8-0.9,1.7-1.5,2.4c-13.3,14.9-31.2,20.1-49.9,22.6c-13.9,1.9-28,2.3-38.1,3c-46.7-2-89.2-5.2-130.4-17.9
			C82.7,582.6,79.8,580.8,76.8,579.4z"/>
	</g>
	<g>
	</g>
</g>
<g>
	<g>
		<path d="M550.8,709.6c0.8,0.3,1.5,0.6,2.3,0.8c0.2,0.1,0.6,0,0.6,0c0.1-0.3,0.3-0.7,0.2-1.1c-0.2-1.1-1.2-1.5-2.3-1.5
			c-1.2,0-2.4,0.1-3.6,0.3c-1.9,0.3-3.2-0.2-3.9-1.7c-0.3-0.7,0.2-1.7,1.1-1.8c2.4-0.1,4.9-0.4,7.3-0.4c3.7,0,6.4,2.6,6.5,5.9
			c0,2.4-1,4.4-1.8,6.5c-0.2,0.5-0.3,1.1-0.3,1.6c0.1,1.1-0.6,1.7-1.5,2.3c-2.9,1.8-6,2.8-9.6,2.2c-1.6-0.3-3.2-0.8-4.7-1.3
			c-1.3-0.4-2.8-2.8-2.8-4c0.1-3.2,1.8-5.5,4.6-7.2c1.8-1,3.9-1,6.1-0.7C549.6,709.4,550.2,709.5,550.8,709.6z M549.2,712.7
			c0.1,0-0.2-0.1-0.5,0c-2.4,0.4-4.1,1.8-5.4,3.5c-0.5,0.7-0.2,1.6,0.8,2.1c2.4,1.2,5.5,0.6,6.9-1.3
			C552.3,715.3,551.6,713.3,549.2,712.7z"/>
		<path d="M497,686.3c-0.3,1.6-0.7,3.1-1,4.7c0,0.2,0.1,0.6,0.3,0.8c0.1,0.1,0.6,0.1,0.8,0c1.9-0.8,4-1.1,6.1,0
			c1.7,0.9,3.8,1.7,4.6,3.6c0.4,0.8,0.5,1.8,0.4,2.6c-0.4,2.4-1.1,4.7-1.5,7.1c-0.2,1.3-0.6,2.5-1.9,3.1c-0.5,0.2-1.5,0.2-1.9-0.1
			c-0.7-0.5-1.6-1.4-1.5-1.9c0.1-1.6,0.7-3.2,1-4.8c0.2-1.2,0.3-2.4,0.4-3.6c0.1-1-0.7-1.6-1.5-1.6c-1.3,0-2.6,0-3.7,0.4
			c-1.8,0.6-2.2,2.3-2.7,3.9c-0.4,1.2-0.6,2.5-1.3,3.5c-0.6,1-2.2,0.5-3.1-0.7c-1.6-2.3-0.9-4.1-0.2-6.1c0.7-1.9,1.4-3.8,1.8-5.7
			c0.6-2.8,1.1-5.7,1.6-8.5c0.2-0.7,0.4-1.7,0.9-2c0.9-0.5,2.9,1.1,2.9,2.2c0,0.5,0,1.1-0.1,1.6C497.3,685.3,497.1,686.3,497,686.3z
			"/>
		<path d="M589.7,728.9c-2.4-0.4-4.2-1.5-5.2-3.2c-0.6-1-0.7-2.3-0.5-3.4c0.2-1.3,0.9-2.6,1.4-3.9c0.9-2,3.1-2.8,5.1-3.8
			c2.3-1.1,4.7-0.9,6.8-0.3c1.1,0.3,2.3,1.3,2.3,2.7c0,1.4,0.5,2.7,0.2,4.1c-0.5,2.9-2.1,5.6-5.5,6.9
			C592.9,728.6,591.2,728.6,589.7,728.9z M595.7,720.9c0,0,0-0.4,0.1-0.7c0.2-1-0.6-2.8-1.5-2.8c-1.3,0.1-2.7,0.4-3.7,1.1
			c-1.4,0.9-2,2.3-2,3.9c0,0.9-0.1,1.9,1,2.1c0.9,0.2,2.2,0.3,3,0C594.3,723.9,595.3,722.7,595.7,720.9z"/>
		<path d="M540.3,693.9c1.8,0.6,2.5,1.8,2,3.5c-0.7,2.2-1.5,4.4-2.2,6.6c-0.9,2.6-1.8,5.2-2.5,7.9c-0.6,2.3-0.6,4.7-1.3,7
			c-0.2,0.7-3.9,0.3-3.9-0.4c-0.1-1.9-0.2-3.8,0.1-5.6c0.4-2.3,1.1-4.6,1.8-6.8c0.7-2.1,1.6-4.1,2.2-6.2c0.5-1.6,0.9-3.2,1.2-4.8
			C538.1,693.9,538.8,693.4,540.3,693.9z"/>
		<path d="M526.8,696.3c0.6-1.4,1-2.8,1.7-4.2c0.2-0.3,0.9-0.7,1.3-0.5c0.7,0.2,1.5,0.6,1.9,1.1c1.2,1.5,0.2,2.9-0.2,4.2
			c-0.8,2.9-1.9,5.8-2.6,8.8c-0.6,2.6-1,5.4-1.4,8.1c-0.2,1.2-1.5,2.2-2.9,2c-1-0.1-1.8-1.4-1.9-2.8c-0.2-3.2,0.8-6.1,1.6-9
			C525.2,701.4,526.7,696.3,526.8,696.3z"/>
		<path d="M516.4,706.6c-0.5,1.2-1.2,2.6,0,4c0.3,0.4,0.8,0.6,1.2,0.9c1,1,0.5,2.2-0.9,2.5c-2.5,0.6-4.8-1.7-5.3-3.6
			c-0.6-2.4-0.1-4.6,0.9-6.7c0.8-1.8,1.5-3.7,2.3-5.6c0.2-0.4,0.7-0.7,1.2-0.9c1.2-0.4,2.2,0.2,2.9,1.2
			C519.1,699.1,517.1,704.6,516.4,706.6z"/>
		<path d="M578.4,723c-0.5,1.2-0.9,2.5-1.5,3.6c-0.5,1-1.4,1.3-2.6,1c-1.1-0.3-2.1-1.6-1.8-2.3c1.1-2.7,2.2-5.4,3.2-8.2
			c0.5-1.3,0.6-2.7,0.7-4.1c0.1-1.7,1.1-2.1,3-1.8c1.7,0.3,2.3,1.5,1.8,3.4C581.1,715.2,579.3,720.8,578.4,723z"/>
		<path d="M567,719.4c1.5,0.3,2.2,1.4,1.9,2.7c-0.3,1-1.7,1.9-2.7,1.6c-1.1-0.2-2.5-2.2-2.4-3.1C563.9,719.8,565.8,718.9,567,719.4z
			"/>
		<path d="M521.3,691.1c1.4,0.5,2.2,1.9,1.8,3c-0.3,0.8-1.7,1.3-2.6,1c-1.2-0.5-2.3-2.3-1.9-3.3C518.9,691,520.2,690.7,521.3,691.1z
			"/>
		<path d="M577.8,708.3c-1.1-0.1-2.1-1.1-2-1.9c0.2-1.1,0.3-2.2,2-1.9c1.9,0.2,2.5,0.9,2.2,2.4C579.9,707.9,578.9,708.5,577.8,708.3
			z"/>
	</g>
</g>
</svg>
