<?xml version="1.0" encoding="UTF-8" standalone="no"?>
<svg
   xmlns:dc="http://purl.org/dc/elements/1.1/"
   xmlns:cc="http://creativecommons.org/ns#"
   xmlns:rdf="http://www.w3.org/1999/02/22-rdf-syntax-ns#"
   xmlns:svg="http://www.w3.org/2000/svg"
   xmlns="http://www.w3.org/2000/svg"
   xmlns:sodipodi="http://sodipodi.sourceforge.net/DTD/sodipodi-0.dtd"
   xmlns:inkscape="http://www.inkscape.org/namespaces/inkscape"
   inkscape:version="1.0beta2 (2b71d25, 2019-12-03)"
   sodipodi:docname="logo_naama_name_edit.svg"
   xml:space="preserve"
   style="enable-background:new 0 0 663.7 789.5;"
   viewBox="0 0 663.7 789.5"
   y="0px"
   x="0px"
   id="Layer_1"
   version="1.1"><metadata
   id="metadata1082"><rdf:RDF><cc:Work
       rdf:about=""><dc:format>image/svg+xml</dc:format><dc:type
         rdf:resource="http://purl.org/dc/dcmitype/StillImage" /></cc:Work></rdf:RDF></metadata><defs
   id="defs1080" /><sodipodi:namedview
   inkscape:current-layer="Layer_1"
   inkscape:window-maximized="1"
   inkscape:window-y="23"
   inkscape:window-x="0"
   inkscape:cy="412.4161"
   inkscape:cx="244.36284"
   inkscape:zoom="2.228261"
   showgrid="false"
   id="namedview1078"
   inkscape:window-height="2115"
   inkscape:window-width="3840"
   inkscape:pageshadow="2"
   inkscape:pageopacity="0"
   guidetolerance="10"
   gridtolerance="10"
   objecttolerance="10"
   borderopacity="1"
   inkscape:document-rotation="0"
   bordercolor="#666666"
   pagecolor="#ffffff" />
<style
   id="style948"
   type="text/css">
	.st0{fill:#FF5B00;}
	.st1{fill:#FF8000;}
	.st2{fill:#FCB97C;}
	.st3{fill:#12491D;}
	.st4{fill:#41AA54;}
</style>
<g
   id="g1075">
	<g
   id="XMLID_1_">
		<g
   id="g1038">
			<path
   id="path950"
   d="M653.1,404.5c-0.4-12-2.2-24.3-5.5-36.4c1.8-2.1,2.9-4.6,2.9-7.7c0-1.1-0.2-2.2-0.5-3.4l2.8-0.8c2.2,8.2,4.4,16.4,6,24.7     c2.4,11.9,3.3,23.7,2.5,35.2l-3.3-0.2c-0.5,3.9-3.2,6.4-6.7,8.2C652.5,417.9,652.9,411.4,653.1,404.5z" />
			<path
   id="path952"
   d="M639,450.8c1.2-1,2.7-1.7,3.5-2.9c4.6-7.4,7.4-15.3,8.8-23.9c3.5-1.8,6.2-4.3,6.7-8.2l3.3,0.2     c-1.1,16.5-5.6,32.5-14.2,47.8c-3.6,6.3-7.2,12.7-11.8,18.3c-8.2,10-17.5,19.1-25.5,29.1c-1.3,1.7-2.7,3.3-4.1,4.9l-2.7-2.4     c-0.8,0.4-11.5,5.8-21.9,8c8.9-7.7,17.5-15.9,23.9-25.3c12.6-18.6,17.7-40.1,18.1-62.7l9.1,0.1c0.1-1.7,1.4-2.9,3.4-3.9     c0.6,5.5,1.3,11,2,16.6C637.9,448,638.6,449.4,639,450.8z" />
			<path
   id="path954"
   d="M651.4,424c-1.5,8.6-4.2,16.5-8.8,23.9c-0.8,1.2-2.3,1.9-3.5,2.9c-0.4-1.4-1.2-2.8-1.3-4.2     c-0.7-5.5-1.4-11-2-16.6C639.6,427.9,646.3,426.7,651.4,424z"
   class="st0" />
			<path
   id="path956"
   d="M637.4,341.9c5.9,3.2,11,9.4,12.5,15c0.3,1.2,0.5,2.3,0.5,3.4c0,3.1-1.1,5.6-2.9,7.7     C645.1,359.2,641.7,350.5,637.4,341.9z" />
			<path
   id="path958"
   d="M637.2,341.5c0.1,0.2,0.2,0.3,0.2,0.4c-2.6-1.4-5.3-2.2-7.9-2.2c-7.1,0-12.1,4.2-13.2,9.5     c-0.9-1.6-1.8-3.1-2.6-4.7c-2.6-4.9-3.6-8.2,3.2-10.8C630.8,328.6,630.5,328.3,637.2,341.5z"
   class="st1" />
			<path
   id="path960"
   d="M627.9,374.4c-1.7-8.8-6.9-17-11.5-25.2c1.1-5.2,6.1-9.5,13.2-9.5c2.6,0,5.4,0.8,7.9,2.2     c4.3,8.5,7.6,17.3,10.1,26.1c-3.3,3.8-9.2,6.2-15.4,8.1c-1.7,0.5-2.8,0.7-3.8,0.4C628.2,375.9,628,375.1,627.9,374.4z"
   class="st2" />
			<path
   id="path962"
   d="M635.7,430c-2.1-17.9-4.1-35.8-7.4-53.4c1,0.3,2.2,0.1,3.8-0.4c6.2-1.9,12.1-4.3,15.4-8.1     c3.3,12.1,5.1,24.4,5.5,36.4c-0.1,6.9-0.6,13.4-1.7,19.5C646.3,426.7,639.6,427.9,635.7,430z"
   class="st1" />
			<path
   id="path964"
   d="M628.1,262.7c1.2,27.3-11.4,48.5-30.4,65.7c-10.5,9.5-25.2,8.9-39.3,7.9c-20.8-1.4-37.1-10.8-53.2-23.6     c-13.1-10.4-29.1-17.1-44-25.2c-8.7-4.7-16.1-10.3-16-21.3c0-4.7,0.1-9.4,0.1-14.2c11.6,9,52.1,39.4,73.4,43.1     c25,4.4,67,14.7,82.5-5.9C601.2,289.3,621.8,277.9,628.1,262.7z"
   class="st0" />
			<path
   id="path966"
   d="M617.2,356.3c-1.1-2.4-1.4-4.8-0.9-7c4.6,8.2,9.8,16.4,11.5,25.2c0.2,0.7,0.3,1.5,0.4,2.2     C625.4,375.8,624,370.7,617.2,356.3z" />
			<path
   id="path968"
   d="M579.2,357.7c19.1,0,34.9,7.4,34.5,16.6c-0.6,12.7-20.7,27.5-34.7,25.5c-28.4-4-36.7-8.7-34.4-25.5     C546,365.2,560.2,357.7,579.2,357.7z"
   class="st2" />
			<path
   id="path970"
   d="M543.9,114c45.4,19.4,65.8,57.9,76.7,102.9c3.5,14.6,5,29.6,7.5,44.5c0,0.4,0,0.9,0.1,1.3     c-6.2,15.2-26.9,26.7-26.9,26.7c-15.5,20.6-57.4,10.3-82.5,5.9c-21.3-3.8-61.8-34.1-73.4-43.1c0.3-17.2,0.7-34.4,0.4-51.6     c-0.3-14.6-0.8-29.5-3.5-43.8c-3.8-20.1,7.1-32.2,21.5-40.9C489.6,100.1,517,102.6,543.9,114z M579.1,156.1     c0-12.6-9.6-15.8-40.6-33c-31.6-17.5-74.7,12.4-76.9,33c-1.4,12.6,26.3,22.9,58.7,22.9C552.8,178.9,579.1,168.7,579.1,156.1z"
   class="st1" />
			<path
   id="path972"
   d="M578.1,731.5c-18.5-14.8-40.4-9.9-61.4-11.4c-10.6-0.8-21.3-3.4-31.6-6.4c-15.5-4.6-31.5-8.5-45.8-15.8     c-22.6-11.6-37.7-30.9-45.8-55.2c-0.7-2,0-4.8,1-6.8c3.4-7.3,8.1-14.1,10.5-21.7c3-9.9,9.7-13.6,18.8-15.9     c0,0,95,37.5,154.7,123.5c0.9,2.4,1.8,4.8,2.6,7.2c0.4,1,0,2.2-0.1,3.3C580.1,732.1,578.9,732.1,578.1,731.5z"
   class="st3" />
			<path
   id="path974"
   d="M611.4,365.4c9.3,16.8,11.1,35.2,11.5,53.2c0.3,5.2,0.4,10.3,0.4,15.3c-0.4,22.7-5.5,44.1-18.1,62.7     c-6.4,9.4-15,17.6-23.9,25.3c-3.6,0.8-7.3,1.2-10.4,0.9c-10.2-1.1-44.1-18-56.5-24.3c4.5-7.1,8.7-14.6,11.6-22.5     c12.8-34.7,13.2-70,3.3-105.6c-2.3-8.3,6.4-19.6,15.8-20.1c7-0.4,14.2,0.8,21.3,1c4.9,0.1,10,0.5,14.8-0.6     C595.4,347.3,603.4,350.9,611.4,365.4z M613.8,374.3c0.4-9.2-15.5-16.6-34.5-16.6c-19.1,0-33.3,7.5-34.5,16.6     c-2.3,16.7,6,21.5,34.4,25.5C593.1,401.8,613.2,387,613.8,374.3z"
   class="st1" />
			<path
   id="path976"
   d="M538.5,123.1c31,17.2,40.6,20.4,40.6,33c0,12.6-26.3,22.9-58.8,22.9c-32.4,0-60.1-10.3-58.7-22.9     C463.8,135.5,506.9,105.6,538.5,123.1z"
   class="st2" />
			<path
   id="path978"
   d="M570.8,522.7c3.2,0.3,6.8-0.1,10.4-0.9c-4.6,4-9.4,7.9-14,11.8c-16.1,13.6-32.8,27.1-54.3,31.8     c-10.2,2.2-20.3,2.8-29.5-3.4c-4.8-3.3-7-7.2-3.2-12.8c11.1-16.4,22.4-32.7,33.1-49.4c0.3-0.5,0.6-0.9,0.9-1.4     C526.7,504.8,560.6,521.7,570.8,522.7z"
   class="st0" />
			<path
   id="path980"
   d="M531.7,631c17.3,16.7,24.8,38.7,34.6,59.4c4.8,10.1,8.5,20.8,12.3,31.4c-59.7-86-154.7-123.5-154.7-123.5     c16.8-4.2,33.3-8.9,50-13.3c2.9-0.8,6-0.9,10.2-1.5c1.3,0.6,4,1,5.5,2.5C503.6,601,516.9,616.8,531.7,631z"
   class="st4" />
			<path
   id="path982"
   d="M514.8,367.2c17.1,46,6.3,88-17.1,127.4c-32.1,31.5-66.2,19.7-76.3,19.2c-16.8-0.9-45.6-9.6-68.2-17.7     c-26.9-9.6-52.8-60.8-60.1-76.4c1.4-27.5,4.8-53.1,14.2-77.6c14.4-37.3,36.3-53.3,75.9-48.4c30.3,3.8,60.6,8.9,89,21.3     C495.5,325.1,506.6,344.9,514.8,367.2z M415.3,394.7c67.6-1.2,89.1-19.7,72.3-41.1c-8.6-11.1-35.9-32.1-72.3-41.1     c-50.7-12.6-82.9,14.7-72.3,41.1C351.5,374.6,375.4,395.5,415.3,394.7z"
   class="st1" />
			<path
   id="path984"
   d="M497.7,494.6c-1.1,1.9-2.3,3.8-3.5,5.7c-13,20.7-28.9,39.9-44.3,59c-9.4,11.6-24.2,14.4-37.9,14.9     c-37.5,1.6-71.5-8.2-99-35.3c-3.5-3.5-6.6-7.9-8.6-12.5c-10.6-24.5-15.5-50-12.2-72.4c0.1-4.6,0.2-9.1,0.2-13.6     c0.2-7,0.4-13.9,0.7-20.7c7.3,15.6,33.1,66.8,60.1,76.4c22.7,8.1,51.4,16.8,68.2,17.7C431.5,514.3,465.5,526.1,497.7,494.6z"
   class="st0" />
			<path
   id="path986"
   d="M487.6,353.6c16.8,21.4-4.7,39.9-72.3,41.1c-39.9,0.7-63.8-20.1-72.3-41.1c-10.6-26.4,21.6-53.8,72.3-41.1     C451.7,321.5,478.9,342.5,487.6,353.6z"
   class="st2" />
			<path
   id="path988"
   d="M479.8,67c-15.3,29.3-67.2,27.9-97.4,24.3c-27.9-11.9-56.4-20.5-87.3-18.2c-1.9,0.1-3.8,0.2-5.6,0.2     c0.9-1.9,1.7-3.9,2.7-5.8c12.3-21.7,28.2-39.3,51.1-48.1c8.8,13,35.8,41.7,88.8,7.2C451.6,36.1,468.7,50,479.8,67z"
   class="st1" />
			<path
   id="path990"
   d="M191.3,172.4c12.9-40.1,40.8-65.8,78.8-81.1c7.9-3.2,18-2.5,26.8-1.6c20.5,2.2,41.1,4.2,61.2,8     c2.5,0.5,5,1,7.4,1.5c30.7,6.7,48,28.8,55.6,57.9c4,15.4,4.5,31.8,5.6,40.5c0.4,18.8-1.1,34.3-5.8,47.8     c-10.6,3.2-32.5,9.5-43.5,8.4c-45.4-4.3-56,6.8-74.5,6.9c-25.6,0.1-35.1-14.6-40.9-19.3c-17.9-14.6-67.6-21.9-80.3-23.5     c0.1-12.5,3.2-24.7,6.9-36.9C189.4,178.1,190.4,175.2,191.3,172.4z M316.1,104.4c-47.3-3.5-68.8-2-80.9,22.4     c-9.7,19.5,38.9,31.4,80.9,31.4c62,0,88.5-9.5,73-26.9C379.2,120.2,356.3,107.3,316.1,104.4z"
   class="st1" />
			<path
   id="path992"
   d="M382.4,91.3c30.3,3.6,82.2,5,97.4-24.3c1.1,1.7,2.2,3.4,3.2,5.1c2.2,3.8,0.1,14.5-3.1,16.2     c-15.3,8.3-31.6,14.6-48.2,21.8c-16.2-6-31.3-11-45.8-17.3C384.8,92.3,383.6,91.9,382.4,91.3z"
   class="st0" />
			<path
   id="path994"
   d="M420.9,245.4c-3.2,9-7.9,17.2-14.5,24.8c-5.9,6.8-12.6,7-19.5,5.6c-25-4.8-46.4,1.7-65,18.8     c-4.7,4.3-9.8,8.2-14.5,12.5c-4.4,4-14.8,3.2-21.7-2.7c-5.1-4.4-10.6-9-13.9-14.6c-10.4-17.5-27.7-23.4-45.4-28.5     c-7.6-2.2-15.6-3.5-23.5-4.3c-9.6-0.9-14.4-6.4-17.4-15c-2.8-8.2-3.9-16.2-3.9-24.1c12.7,1.6,62.3,8.9,80.3,23.5     c5.8,4.7,15.3,19.4,40.9,19.3c18.5-0.1,29.1-11.2,74.5-6.9C388.3,254.9,410.3,248.6,420.9,245.4z"
   class="st0" />
			<path
   id="path996"
   d="M389.1,131.2c15.5,17.4-11,26.9-73,26.9c-41.9,0-90.6-11.9-80.9-31.4c12.1-24.3,33.6-25.9,80.9-22.4     C356.3,107.3,379.2,120.2,389.1,131.2z"
   class="st2" />
			<path
   id="path998"
   d="M432.1,26.7c-53,34.5-80,5.9-88.8-7.2c3.3-1.3,6.7-2.4,10.3-3.2C378.6,10.2,407.3,14.7,432.1,26.7z"
   class="st2" />
			<path
   id="path1000"
   d="M327,578.3c0,0-47.6,12.2-70.5,181.1c-0.9-1.6-2.1-3-2.7-4.7c-11.5-31.3-26.6-61.6-27.3-96     c-0.1-2-0.4-3.9-0.4-5.9c-0.1-3,0-5.9,0-8.8c-1-23.6,7.5-42.1,27.7-55.5c7.8-5.2,13.7-13.3,20.7-19.9c1.3-1.2,3.4-2.2,5.2-2.4     C296.7,564.8,311.8,572.1,327,578.3z"
   class="st4" />
			<path
   id="path1002"
   d="M279.7,507.3c4,21.9-19.1,41.6-40.8,42.7c-23.1,1.2-43-8.8-63.8-17.3c-54.8-22.4-84.4-81.2-83.5-138.7     c6.8,29.3,26.8,78.1,81,78c56.2,0,91.6-20.1,103.7-28.4c-0.4,7.1-0.8,14.1-1,21.2C274.8,478.9,277.1,493.3,279.7,507.3z"
   class="st0" />
			<path
   id="path1004"
   d="M272.5,63.8c-2.3,2.3-4.4,5-7,6.8c-2.1,1.5-4.2,3-6.2,4.4c1-5-3.5-8-10.2-9.2c4.5-1.2,9-2.4,13.6-3.4     C265.6,61.6,269.2,63.3,272.5,63.8z"
   class="st1" />
			<path
   id="path1006"
   d="M260.8,755.6c-1.2,1.4-2.7,2.6-4.1,4c0-0.1-0.1-0.2-0.2-0.2C279.4,590.4,327,578.3,327,578.3     c19.2,7.8,38.4,15.2,59.5,16c1.2,0,3.4,2.7,3.4,4c-0.7,20.4-12.5,36.1-23.8,51.5c-18.7,25.3-46,41.3-68.7,62.3     C283.5,724.8,272.9,741,260.8,755.6z"
   class="st3" />
			<path
   id="path1008"
   d="M249,65.8c6.7,1.2,11.2,4.2,10.2,9.2c-10.2,7.2-20.6,14-30.8,21.2c0,0,0,0-0.1,0.1c-0.1,0-0.2,0.1-0.4,0.2     c-27.1,14.3-60.1,18.2-56.2,2.4c3.9-2.4,7.9-4.8,11.8-7.2c13.1-8.2,26-15.9,41.1-19.5C233,70.2,241,67.9,249,65.8z"
   class="st2" />
			<path
   id="path1010"
   d="M259.3,75c-0.5,2.8-2.8,6.2-7.3,10.3c-6,5.4-14.6,6.3-23.5,10.9C238.7,89.1,249.1,82.2,259.3,75z" />
			<path
   id="path1012"
   d="M205.6,282.9c29.7-1.2,45.3,20.1,41.1,41c-3.6,17.6-12.3,30.2-45.9,30.3c-30.7,0.1-43.4-11.1-49.3-25.2     C141.5,305.2,175.2,284.1,205.6,282.9z"
   class="st2" />
			<path
   id="path1014"
   d="M253.7,588.4c-20.2,13.4-28.7,31.9-27.7,55.5c0,3,0,5.9,0,8.8c0,2,0.4,3.9,0.4,5.9c0.8,34.4,15.9,64.7,27.3,96     c0.6,1.7,1.8,3.2,2.7,4.7c0.1,0.1,0.1,0.2,0.2,0.2c1.4-1.3,2.9-2.5,4.1-4c12.1-14.6,22.8-30.8,36.6-43.5c22.7-21,50-37,68.7-62.3     c11.3-15.4,23.1-31.1,23.8-51.5c0-1.4-2.2-4-3.4-4c-21.1-0.7-40.3-8.2-59.5-16c-15.2-6.1-30.3-13.4-47.4-12.2     c-1.8,0.1-3.9,1.1-5.2,2.4C267.4,575.1,261.5,583.2,253.7,588.4z M556.1,641.1c12.6,25.8,22.6,53,32.9,79.8     c3.5,9,4.6,19,6.5,28.7c0.3,1.5-0.9,3.8-2.2,4.9c-0.7,0.7-3.4,0.2-4.4-0.8c-16.1-14.4-35.5-20.5-56.4-19.9     c-30.5,0.9-58.8-7.8-86.4-18.5c-20.6-8-36.7-23.9-52.1-39.7c-2.3-2.3-4.2-5.4-7-6.7c-2.6-1.2-7-1.8-8.9-0.3     c-27.1,20.2-55.3,39.2-80.3,61.8c-15.2,13.6-25.3,32.9-37.9,49.6c-1.9,2.5-4.4,4.6-6.5,6.9c-1.9-2.4-4.8-4.6-5.6-7.3     c-14.7-53-35.6-104.6-33.1-161.1c0.4-9.8-8.1-10.3-14.6-11.5c-6.9-1.2-73.3-1.7-99.1-4.9c-23.9-3-47.6-8.9-71-14.8     c-8.9-2.2-16.9-8-25.1-12.4c-1.4-0.8-3.2-3.8-2.7-4.8c1-2.3,2.9-4.7,5.1-5.8c10.2-5.1,21.6-8.6,30.9-15     c10.4-7.1,57.4-37.5,64.8-50.9c-4-13.6-17.7-37.3-21.3-51c-5.6-21.6-12.2-42.5-23.3-62c-14.8-26.3-17.3-55.1-13.5-84.4     c4.1-32.2,15.9-60.7,37.8-85.6c8.2-9.3,10.9-23.9,14.5-36.6c3.9-13.7,9.1-26.6,15.7-38.5l5,2.8c0,0,0.1,3.8,1.8,8.9     c-4.1,7.6-7.1,15.9-7.9,25.5c3,8,5.6,16.1,9.1,23.8c0.9,2,4.8,3.7,7.3,3.8c6.4,0.2,12.8,0.3,19.2,0.2l0,8.7     c-24.6,0.4-46.8,5.3-63.4,23.1c-0.9,0.9-1.8,1.9-2.6,2.8c-13,15.5-17.5,34.9-21.5,54.1c-1.1,5.5-2.1,11-2.8,16.4     c0,0.4-0.1,0.9-0.2,1.5c-1.9,16.9-0.8,33.8,6.6,50.1c1.8,4,8.1,6.1,12.3,9.1c2.5-3.6,6.2-6.8,7.2-10.7     c4.6-17.5,12.5-32.8,23.3-46.2l8.8,3.4c-4.1,5-7.7,10.5-10.5,16.7c-8.5,18.6-12.8,39.1-13.1,59.8c-1,57.5,28.7,116.4,83.5,138.7     c20.8,8.4,40.7,18.5,63.8,17.3c21.7-1.1,44.8-20.8,40.8-42.7c-2.5-14-4.8-28.4-4.4-42.5c0.2-7.1,0.6-14.1,1-21.2     c3.1-2.2,4.7-3.5,4.7-3.5l11.4,0.2c-0.1,4.5-0.2,9-0.2,13.6c-3.3,22.4,1.6,48,12.2,72.4c2,4.6,5,9,8.6,12.5     c27.5,27.1,61.5,36.9,99,35.3c13.8-0.6,28.5-3.3,37.9-14.9c15.5-19.1,31.3-38.2,44.3-59c1.2-1.9,2.4-3.8,3.5-5.7     c0.4-0.4,0.9-0.8,1.3-1.3l10.7,2.8c0,0,1.7,0.9,4.6,2.4c-0.3,0.5-0.6,0.9-0.9,1.4c-10.7,16.7-22,32.9-33.1,49.4     c-3.8,5.6-1.7,9.5,3.2,12.8c9.2,6.2,19.4,5.6,29.5,3.4c21.5-4.7,38.2-18.1,54.3-31.8c4.6-3.9,9.3-7.8,14-11.8     c10.4-2.2,21.1-7.6,21.9-8l2.7,2.4c-19.8,22.9-44.4,39.7-69.9,55.6c-4.7,3-8.9,7.2-12.3,11.6c-1.3,1.7-0.8,6.2,0.5,8.3     C534.7,608.3,547.5,623.6,556.1,641.1z M581.2,729.1c-0.9-2.4-1.8-4.8-2.6-7.2c-3.8-10.6-7.4-21.3-12.3-31.4     c-9.8-20.7-17.3-42.7-34.6-59.4c-14.8-14.2-28-30.1-42.1-45c-1.5-1.6-4.2-2-5.5-2.5c-4.2,0.6-7.3,0.8-10.2,1.5     c-16.7,4.4-33.3,9.1-50,13.3c-9,2.3-15.8,6-18.8,15.9c-2.4,7.6-7.1,14.4-10.5,21.7c-1,2-1.6,4.8-1,6.8     c8.1,24.3,23.3,43.6,45.8,55.2c14.2,7.3,30.3,11.2,45.8,15.8c10.3,3,20.9,5.6,31.6,6.4c21,1.5,42.9-3.4,61.4,11.4     c0.8,0.6,2,0.6,2.9,0.9C581.1,731.3,581.5,730,581.2,729.1z M257.3,565.9c-0.9,0-1.9-0.1-2.8-0.1c-8.8,0-17.7,0.9-26.4-0.1     c-17.5-2-33.9-6.8-49.4-13.8c-16.5-7.3-32-16.9-46.9-27.8c-5.4-4-9.9-12.1-18.6-7.9s-17.4,8.7-25.3,14.3     c-16.7,11.8-32.8,24.5-49.2,36.6c-2.4,1.8-5.2,3.1-7.8,4.6c3,1.4,5.8,3.2,8.9,4.1c40.7,12.6,82.7,15.8,129,17.8     c10-0.8,24-1.1,37.7-3c18.5-2.5,36.2-7.7,49.3-22.4C256.4,567.6,256.8,566.7,257.3,565.9z" />
			<path
   id="path1016"
   d="M216.7,272.2c26.4,1.7,42.3,17.8,52.6,40.5c9.5,21.1,13.5,43.1,11.9,66.2c-1.6,21.6-3.6,43.1-4.9,64.7     c-12.1,8.2-47.5,28.3-103.7,28.4c-54.2,0-74.2-48.7-81-78c0.3-20.7,4.6-41.2,13.1-59.8c2.8-6.2,6.4-11.7,10.5-16.7     c9-11,20.8-19.2,33.5-26.4C169.7,279.2,191.9,270.5,216.7,272.2z M246.6,323.9c4.3-20.9-11.4-42.2-41.1-41     c-30.3,1.2-64,22.4-54.1,46.1c5.9,14.1,18.6,25.3,49.3,25.2C234.3,354.1,243,341.5,246.6,323.9z"
   class="st1" />
			<path
   id="path1018"
   d="M171.9,98.8c-3.9,15.9,29.1,11.9,56.2-2.4c0.1-0.1,0.2-0.1,0.4-0.2c-7.3,5.2-14.5,10.5-21.3,16.2     c-21.9,18.1-30.9,43.2-36.2,69.8c-35.9-0.7-47.5-19.1-51.2-30.5c4.5-8.4,10.3-15.9,16.1-23.4C145.6,115.8,158.5,107.1,171.9,98.8     z"
   class="st1" />
			<path
   id="path1020"
   d="M224.9,72.1c-15.2,3.6-28,11.3-41.1,19.5c-3.9,2.4-7.9,4.8-11.8,7.2c1.2-4.7,5.6-11.1,14.4-19.5     c5.9-5.7,31.9-10.2,41.8-12.5c7.3-1.7,15-2.1,21-1C241,67.9,233,70.2,224.9,72.1z" />
			<path
   id="path1022"
   d="M262.6,62.3c-4.6,1-9.1,2.2-13.6,3.4c-6-1.1-13.7-0.7-21,1c-10,2.4-35.9,6.8-41.8,12.5c-8.8,8.4-13.2,14.8-14.4,19.5     c-13.3,8.3-26.2,16.9-36.1,29.6c-5.8,7.5-11.6,15-16.1,23.4c-1.7-5.2-1.8-8.9-1.8-8.9l-5-2.8c12.4-22.8,29.7-42.1,51.9-58     c24.9-17.7,52.8-26.4,82.9-30.3c16.5-2.1,34.4-0.8,48.6-12.5c8.1-6.7,15.1-14.8,23.9-20.5c16.6-10.6,34.9-15.9,55-16.4     c23.1-0.6,44.6,4.6,64.3,14.7l-2.6,6.3c-1.6,1.1-3.2,2.2-4.7,3.2c-24.8-12-53.5-16.5-78.5-10.4c-3.6,0.9-7,2-10.3,3.2     c-22.9,8.7-38.8,26.4-51.1,48.1c-1,1.8-1.8,3.8-2.7,5.8c1.9-0.1,3.8-0.1,5.6-0.2c30.9-2.2,59.4,6.3,87.3,18.2     c-12.6-1.4-21.4-3.3-22.3-3.5l-2,9.9c-20.2-3.9-40.8-5.9-61.2-8c-8.8-1-18.9-1.6-26.8,1.6c-37.9,15.3-65.9,40.9-78.8,81.1     c-0.9,2.9-1.8,5.8-2.7,8.6l-8.1,1.1c-3.4,0.2-6.6,0.3-9.6,0.2c5.3-26.6,14.3-51.7,36.2-69.8c6.8-5.7,14-11,21.3-16.2     c0,0,0,0,0.1-0.1c8.9-4.6,17.5-5.5,23.5-10.9c4.5-4.1,6.8-7.5,7.3-10.3c2.1-1.4,4.2-2.9,6.2-4.4c2.6-1.8,4.6-4.5,7-6.8     C269.2,63.3,265.6,61.6,262.6,62.3z" />
			<path
   id="path1024"
   d="M131.8,524.1c14.9,10.8,30.4,20.5,46.9,27.8v0c-51.8,38.1-147.9,19.8-147.9,19.8c2.6-1.5,5.4-2.8,7.8-4.6     c16.4-12.2,32.5-24.8,49.2-36.6c7.9-5.6,16.6-10,25.3-14.3S126.3,520.1,131.8,524.1z"
   class="st4" />
			<path
   id="path1026"
   d="M170.9,182.3c-0.8,3.6-1.4,7.3-2,10.9c-0.5,3.3-0.5,6.6-1.2,9.9c-0.1,0.8-1.6,1.9-2.6,1.9     c-5.9,0-11.8,0.1-17.7,0.1c-6.4,0-12.8,0-19.2-0.2c-2.6-0.1-6.4-1.8-7.3-3.8c-3.6-7.7-6.2-15.8-9.1-23.8     c0.8-9.6,3.8-17.9,7.9-25.5C123.4,163.3,135,181.6,170.9,182.3z"
   class="st0" />
			<path
   id="path1028"
   d="M120.7,222.3c23.3-0.9,35.5,15.7,32.2,32.2c-2.8,13.8-9.6,23.6-35.9,23.7c-24.1,0.1-34-8.7-38.7-19.8     c-2.8-6.7-1.2-13.1,3.2-18.7c0.8-1,1.6-1.9,2.6-2.8C92.4,228.5,107,222.8,120.7,222.3z"
   class="st2" />
			<path
   id="path1030"
   d="M620.5,216.9c-10.9-45.1-31.3-83.6-76.7-102.9c-26.8-11.4-54.2-13.8-80.1,1.8c-14.4,8.7-25.3,20.8-21.5,40.9     c2.7,14.3,3.2,29.2,3.5,43.8c0.3,17.2-0.2,34.4-0.4,51.6c0,4.8-0.1,9.5-0.1,14.2c0,11,7.3,16.6,16,21.3c14.9,8,30.9,14.8,44,25.2     c16.1,12.8,32.4,22.2,53.2,23.6c14,1,28.8,1.6,39.3-7.9c19-17.2,31.6-38.4,30.4-65.7c0-0.4,0-0.8-0.1-1.3     C625.6,246.6,624,231.5,620.5,216.9z M650,357c-1.6-5.7-6.6-11.8-12.5-15c-0.1-0.2-0.2-0.3-0.2-0.4c-6.7-13.2-6.4-12.9-20.3-7.7     c-6.8,2.5-5.7,5.8-3.2,10.8c0.8,1.6,1.6,3.1,2.6,4.7c-0.5,2.2-0.2,4.7,0.9,7c6.8,14.4,8.2,19.5,11,20.3     c3.3,17.6,5.3,35.5,7.4,53.4c-2,1-3.3,2.2-3.4,3.9l-9.1-0.1c0.1-5,0-10.2-0.4-15.3c-0.4-18-2.2-36.4-11.5-53.2     c-8-14.4-15.9-18-30.4-14.6c-4.7,1.1-9.8,0.7-14.8,0.6c-7.1-0.2-14.2-1.3-21.3-1c-9.4,0.5-18.1,11.8-15.8,20.1     c9.9,35.5,9.5,70.8-3.3,105.6c-2.8,7.8-7,15.3-11.6,22.5c-2.9-1.5-4.6-2.4-4.6-2.4l-10.7-2.8c-0.4,0.4-0.8,0.9-1.3,1.3     c23.5-39.4,34.2-81.4,17.1-127.4c-8.2-22.3-19.3-42.1-42.5-52.3c-28.4-12.4-58.6-17.5-89-21.3c-39.7-4.9-61.6,11.1-75.9,48.4     c-9.5,24.5-12.8,50.2-14.2,77.6c-0.3,6.8-0.6,13.6-0.7,20.7l-11.4-0.2c0,0-1.6,1.3-4.7,3.5c1.3-21.6,3.3-43.1,4.9-64.7     c1.6-23.1-2.4-45.1-11.9-66.2c-10.3-22.7-26.2-38.8-52.6-40.5c-24.8-1.6-47,7-68,18.9c-12.6,7.2-24.4,15.4-33.5,26.4l-8.8-3.4     c6.4-8,13.9-15.4,22.3-22.2c10.8-8.8,22.5-18.1,29.2-29.8c6.2-10.8,6.3-25.2,9.1-38.1c1.5-6.7-1-9.9-8.1-9.4     c-4.1,0.2-8.2-0.4-11.5-0.6l0-8.7c5.9,0,11.8-0.1,17.7-0.1c0.9,0,2.4-1.1,2.6-1.9c0.6-3.2,0.6-6.6,1.2-9.9     c0.6-3.6,1.2-7.3,2-10.9c3,0.1,6.2,0,9.6-0.2l8.1-1.1c-3.7,12.2-6.8,24.4-6.9,36.9c0,7.9,1,15.9,3.9,24.1c3,8.6,7.7,14.1,17.4,15     c7.9,0.8,15.9,2.1,23.5,4.3c17.7,5.1,35,11.1,45.4,28.5c3.4,5.6,8.8,10.2,13.9,14.6c6.8,5.9,17.2,6.7,21.7,2.7     c4.7-4.3,9.8-8.2,14.5-12.5c18.6-17.1,40-23.5,65-18.8c6.9,1.3,13.6,1.2,19.5-5.6c6.6-7.6,11.3-15.8,14.5-24.8     c4.7-13.5,6.2-29,5.8-47.8c-1.1-8.7-1.6-25.1-5.6-40.5c-7.6-29.1-24.9-51.2-55.6-57.9c-2.4-0.5-4.9-1-7.4-1.5l2-9.9     c0.9,0.2,9.7,2,22.3,3.5c1.2,0.5,2.4,1,3.5,1.5c14.5,6.3,29.6,11.2,45.8,17.3c16.5-7.2,32.9-13.5,48.2-21.8     c3.2-1.7,5.3-12.4,3.1-16.2c-1-1.7-2-3.4-3.2-5.1c-11.1-17-28.3-30.9-47.7-40.3c1.5-1,3.1-2,4.7-3.2l2.6-6.3     c4.3,2.2,8.5,4.6,12.7,7.3c13.4,8.6,26.1,19.8,35.7,32.4c16.4,21.4,37.8,33.9,61.6,44.9c31.9,14.7,56.9,37.5,67,72.8     c6.8,23.7,13.6,47.5,18.1,71.7c4.3,23.5,4.6,47.8,8.8,71.2c2.3,13,6,25.8,9.5,38.6L650,357z" />
			<path
   id="path1032"
   d="M120.7,222.3c-13.7,0.5-28.3,6.3-36.7,14.6c16.6-17.8,38.9-22.7,63.4-23.1c3.3,0.2,7.4,0.9,11.5,0.6     c7.2-0.4,9.6,2.7,8.1,9.4c-2.8,12.8-2.9,27.2-9.1,38.1c-6.7,11.7-18.4,21.1-29.2,29.8c-8.4,6.8-15.9,14.2-22.3,22.2     c-10.7,13.4-18.6,28.7-23.3,46.2c-27.9-9.2-27-39.6-26.1-48.5c0.1-0.6,0.1-1.1,0.2-1.5c0.7-5.4,1.6-10.9,2.8-16.4     c4-19.2,8.4-38.6,21.5-54.1c-4.3,5.5-6,12-3.2,18.7c4.6,11.1,14.6,19.9,38.7,19.8c26.3-0.1,33.1-9.9,35.9-23.7     C156.3,238,144,221.3,120.7,222.3z"
   class="st1" />
			<path
   id="path1034"
   d="M83.2,360.2c-1,3.9-4.8,7.1-7.2,10.7c-4.2-3-10.4-5-12.3-9.1c-7.4-16.3-8.4-33.1-6.6-50.1     C56.2,320.6,55.3,351,83.2,360.2z"
   class="st0" />
			<path
   id="path1036"
   d="M30.8,571.7c0,0,96.1,18.3,147.9-19.8v0c15.5,7,31.9,11.8,49.4,13.8c8.7,1,17.6,0.1,26.4,0.1     c0.9,0,1.9,0,2.8,0.1c-0.5,0.8-0.9,1.7-1.6,2.4c-13.1,14.7-30.8,19.9-49.3,22.4c-13.7,1.9-27.7,2.2-37.7,3     c-46.2-2-88.3-5.2-129-17.8C36.6,574.9,33.8,573.1,30.8,571.7z"
   class="st3" />
		</g>
		<g
   id="g1040">
		</g>
	</g>
	<g
   id="g1065">
		<g
   style="fill:#41aa54;fill-opacity:1"
   id="g1063">
			<path
   style="fill:#41aa54;fill-opacity:1"
   id="path1043"
   d="M499.5,696.2c0.7,0.3,1.5,0.6,2.3,0.9c0.2,0.1,0.6,0.1,0.6,0c0.2-0.3,0.3-0.7,0.3-1.1c-0.2-1.1-1.2-1.6-2.3-1.6     c-1.2-0.1-2.5,0-3.7,0.2c-2,0.2-3.2-0.3-3.9-1.8c-0.3-0.7,0.3-1.7,1.1-1.8c2.5-0.1,4.9-0.2,7.4-0.2c3.7,0.1,6.4,2.8,6.4,6.1     c0,2.4-1.2,4.4-2,6.5c-0.2,0.5-0.3,1.1-0.3,1.6c0,1.1-0.6,1.7-1.5,2.3c-2.9,1.7-6.1,2.7-9.7,1.9c-1.6-0.3-3.2-0.9-4.7-1.4     c-1.3-0.5-2.8-2.9-2.7-4.1c0.2-3.2,2-5.5,4.9-7.1c1.8-1,4-0.9,6.1-0.6C498.3,696.1,498.8,696.1,499.5,696.2z M497.8,699.4     c0.1,0-0.2-0.1-0.5,0c-2.5,0.3-4.2,1.6-5.5,3.4c-0.5,0.7-0.2,1.6,0.7,2.2c2.4,1.3,5.5,0.8,7-1.1C500.8,702,500.2,700,497.8,699.4     z" />
			<path
   style="fill:#41aa54;fill-opacity:1"
   id="path1045"
   d="M446.1,671.4c-0.4,1.6-0.8,3.1-1.1,4.7c-0.1,0.2,0.1,0.6,0.2,0.8c0.1,0.1,0.6,0.1,0.8,0c1.9-0.7,4-1,6.1,0.2     c1.7,1,3.7,1.8,4.6,3.7c0.4,0.8,0.5,1.8,0.3,2.6c-0.5,2.4-1.2,4.7-1.7,7.1c-0.3,1.3-0.7,2.5-2,3.1c-0.5,0.2-1.5,0.2-1.9-0.1     c-0.7-0.5-1.5-1.4-1.5-2c0.1-1.6,0.8-3.2,1.1-4.8c0.2-1.2,0.3-2.4,0.5-3.6c0.1-1-0.6-1.6-1.5-1.7c-1.3-0.1-2.6,0-3.8,0.3     c-1.8,0.6-2.3,2.3-2.8,3.9c-0.4,1.2-0.7,2.5-1.4,3.5c-0.7,1-2.3,0.4-3.1-0.7c-1.6-2.3-0.8-4.2,0-6.1c0.8-1.8,1.5-3.7,2-5.7     c0.7-2.8,1.2-5.7,1.9-8.5c0.2-0.7,0.4-1.7,1-2c0.9-0.5,2.9,1.2,2.8,2.3c0,0.5-0.1,1.1-0.1,1.6     C446.3,670.3,446.1,671.4,446.1,671.4z" />
			<path
   style="fill:#41aa54;fill-opacity:1"
   id="path1047"
   d="M538,716.8c-2.4-0.5-4.2-1.6-5.1-3.4c-0.5-1-0.6-2.3-0.5-3.5c0.2-1.3,0.9-2.6,1.5-3.9c0.9-2,3.1-2.8,5.2-3.7     c2.3-1,4.7-0.7,6.8-0.1c1.1,0.3,2.3,1.3,2.3,2.8c0,1.4,0.4,2.8,0.1,4.1c-0.6,2.9-2.3,5.5-5.7,6.8     C541.3,716.6,539.6,716.6,538,716.8z M544.3,708.9c0,0,0-0.4,0.1-0.7c0.2-1-0.5-2.9-1.4-2.8c-1.3,0-2.8,0.4-3.8,1     c-1.4,0.9-2,2.3-2.1,3.8c0,0.9-0.1,1.9,0.9,2.2c0.9,0.3,2.2,0.4,3.1,0.1C542.8,711.9,543.8,710.7,544.3,708.9z" />
			<path
   style="fill:#41aa54;fill-opacity:1"
   id="path1049"
   d="M489.3,680.2c1.8,0.7,2.5,1.8,1.9,3.6c-0.7,2.2-1.6,4.4-2.4,6.6c-0.9,2.6-2,5.2-2.7,7.8c-0.6,2.3-0.8,4.7-1.5,7     c-0.2,0.7-3.9,0.2-3.9-0.5c-0.1-1.9-0.1-3.8,0.3-5.6c0.5-2.3,1.3-4.6,2.1-6.8c0.7-2.1,1.7-4.1,2.4-6.2c0.5-1.6,1-3.2,1.3-4.8     C487.1,680.1,487.9,679.7,489.3,680.2z" />
			<path
   style="fill:#41aa54;fill-opacity:1"
   id="path1051"
   d="M475.7,682.3c0.6-1.4,1.1-2.8,1.8-4.2c0.2-0.3,0.9-0.6,1.3-0.5c0.7,0.2,1.5,0.6,1.9,1.2c1.2,1.5,0.1,2.9-0.3,4.3     c-0.9,2.9-2.1,5.8-2.9,8.8c-0.7,2.6-1.1,5.4-1.6,8.1c-0.2,1.2-1.5,2.1-2.9,1.9c-1-0.1-1.8-1.5-1.8-2.9c-0.1-3.2,1-6.1,1.9-9     C473.9,687.3,475.6,682.2,475.7,682.3z" />
			<path
   style="fill:#41aa54;fill-opacity:1"
   id="path1053"
   d="M464.9,692.3c-0.5,1.2-1.3,2.6-0.1,4c0.3,0.4,0.8,0.6,1.2,0.9c1,1.1,0.5,2.2-0.9,2.5c-2.5,0.5-4.8-1.9-5.2-3.8     c-0.5-2.5,0.1-4.6,1.1-6.7c0.9-1.8,1.6-3.7,2.5-5.5c0.2-0.4,0.7-0.7,1.2-0.9c1.2-0.4,2.3,0.3,2.9,1.2     C467.9,684.8,465.7,690.3,464.9,692.3z" />
			<path
   style="fill:#41aa54;fill-opacity:1"
   id="path1055"
   d="M526.8,710.6c-0.5,1.2-1,2.4-1.6,3.6c-0.5,1-1.5,1.2-2.6,0.9c-1.1-0.3-2-1.7-1.7-2.4c1.1-2.7,2.4-5.4,3.4-8.2     c0.5-1.3,0.7-2.7,0.8-4.1c0.1-1.7,1.2-2.1,3-1.7c1.7,0.4,2.2,1.6,1.8,3.5C529.8,702.7,527.8,708.3,526.8,710.6z" />
			<path
   style="fill:#41aa54;fill-opacity:1"
   id="path1057"
   d="M515.5,706.6c1.5,0.3,2.2,1.5,1.8,2.8c-0.3,1-1.7,1.8-2.8,1.6c-1.1-0.3-2.5-2.3-2.3-3.2     C512.3,706.9,514.3,706.1,515.5,706.6z" />
			<path
   style="fill:#41aa54;fill-opacity:1"
   id="path1059"
   d="M470.3,676.9c1.4,0.6,2.2,2,1.8,3c-0.3,0.8-1.7,1.3-2.6,0.9c-1.2-0.5-2.2-2.4-1.9-3.4     C467.9,676.7,469.2,676.4,470.3,676.9z" />
			<path
   style="fill:#41aa54;fill-opacity:1"
   id="path1061"
   d="M526.6,695.8c-1.1-0.2-2-1.2-1.9-2c0.2-1.1,0.3-2.2,2.1-1.9c1.9,0.3,2.5,1,2.2,2.5C528.8,695.4,527.8,696,526.6,695.8z" />
		</g>
	</g>
	<g
   id="g1073">
		<path
   id="path1067"
   d="M294.9,197.9c-0.2,1-0.5,2.2-0.8,3.4c-0.7,2.9-0.6,5.9-0.1,8.8c0.4,2.2,1.6,3.3,3.8,3.5c2.8,0.3,5.5-0.1,8-1.4    c1.5-0.8,2.7-2.1,3.7-3.5c1.1-1.6,2.3-3.1,3.3-4.8c0.6-1,0.9-2.3,1.2-3.5c0.2-1,0.2-2,0.4-3c0.5-3.6,3-5.3,6.2-5.8    c0.7-0.1,1.6,0.3,2.2,0.8c1.8,1.6,2.9,3.7,4.1,5.8c0.3,0.5,0.2,1.2,0.2,1.7c-0.2,1.8-0.7,3.4-1.6,5c-1.1,1.9-1.9,4-2.8,6    c-0.5,0.9-1.1,1.8-1.7,2.7c-0.7,0.9-1.6,1.8-2.3,2.7c-2,2.4-3.9,5-6.9,6.4c-1.1,0.5-2,1.2-3,1.9c-2.3,1.6-4.9,1.7-7.6,1.9    c-1.8,0.2-3.5,0-5.3-0.1c-3-0.2-5.4-1.5-7.5-3.6c-1.3-1.3-2.6-2.4-3.9-3.7c-2.2-2.1-3.7-4.6-3.7-7.8c0-3.6-0.3-7.1-0.3-10.7    c0-1.8-0.2-3.8,0.9-5.5c1.6-2.2,2.8-4.9,6-5.4c5.4-1,8.1,3,7.6,7.3C295,197.3,295,197.5,294.9,197.9z" />
		<path
   id="path1069"
   d="M390.3,199.6c0.7-5,3.2-8.3,7.1-10.4c2.1-1.1,4.7-1.6,7.1-2.1c1.9-0.4,3.9-0.4,5.8-0.3c2.2,0.1,4.2,0.9,5.7,2.6    c1.1,1.1,2.1,2.3,3.1,3.5c1.4,1.7,1.8,3.6,0.9,5.7c-0.7,1.6-1.3,3.3-1.8,5c-0.9,2.5-2.5,4.3-4.5,5.9c-2.5,2.1-5.3,3.4-8.4,4.3    c-3,0.9-5.7,0.2-8.4-1.2c-0.7-0.4-1.3-0.7-2-1.1c-2.3-1.2-3.8-3.1-4.3-5.7C390.2,203.6,389.7,201.4,390.3,199.6z" />
		<path
   id="path1071"
   d="M209.4,175c0.4-3.1,1.9-5.8,3.3-8.5c1-1.9,2.5-3.5,4.1-5c1.7-1.6,3.9-2.3,6.1-2.7c0.3-0.1,0.6,0,1-0.1    c3.7-0.7,6.5,0.8,8.8,3.6c1.8,2.2,3,4.7,3.8,7.4c0.6,2,0.5,3.9-0.3,5.8c-0.5,1.4-1.1,2.7-1.8,4c-0.5,0.8-1.2,1.5-1.9,2.1    c-2.8,2.7-6.1,4.1-9.9,4.6c-1.9,0.3-3.7,0.7-5.6,0.3c-4.3-0.9-7.3-4.4-7.8-8.9C209.1,176.7,209.3,175.9,209.4,175z" />
	</g>
</g>
</svg>
