<?xml version="1.0" standalone="no"?>
<!DOCTYPE svg PUBLIC "-//W3C//DTD SVG 20010904//EN"
 "http://www.w3.org/TR/2001/REC-SVG-20010904/DTD/svg10.dtd">
<svg version="1.0" xmlns="http://www.w3.org/2000/svg"
 width="790.000000pt" height="790.000000pt" viewBox="0 0 790.000000 790.000000"
 preserveAspectRatio="xMidYMid meet">
<metadata>
Created by potrace 1.11, written by Peter Selinger 2001-2013
</metadata>
<g transform="translate(0.000000,790.000000) scale(0.100000,-0.100000)"
fill="#000000" stroke="none">
<path d="M4297 7874 c-1 -1 -26 -5 -56 -9 -30 -4 -64 -10 -75 -15 -12 -4 -24
-8 -29 -8 -95 -6 -304 -116 -421 -223 -32 -30 -77 -71 -100 -91 -41 -38 -142
-94 -183 -103 -13 -3 -33 -7 -45 -10 -33 -7 -111 -17 -248 -29 -58 -6 -102
-12 -205 -32 -172 -32 -389 -111 -538 -197 -32 -18 -149 -99 -186 -127 -76
-59 -211 -187 -211 -200 0 -6 -4 -10 -9 -10 -19 0 -211 -263 -211 -289 0 -6
-5 -11 -11 -11 -6 0 -9 -7 -5 -15 3 -8 2 -15 -2 -15 -5 0 -23 -33 -41 -72 -19
-40 -42 -90 -53 -110 -11 -21 -17 -38 -14 -38 3 0 -3 -19 -13 -42 -9 -24 -32
-97 -50 -163 -48 -176 -87 -269 -137 -325 -20 -22 -50 -58 -72 -85 -28 -36
-106 -162 -138 -225 -80 -154 -135 -330 -159 -505 -16 -111 -18 -139 -18 -255
-1 -143 7 -233 21 -271 6 -15 9 -29 6 -31 -4 -5 27 -118 45 -163 4 -11 44 -94
89 -185 44 -91 90 -192 102 -225 12 -33 25 -69 30 -80 13 -32 27 -76 44 -135
41 -149 50 -180 73 -240 14 -36 35 -85 46 -110 12 -25 20 -48 19 -52 -1 -3 5
-12 13 -18 8 -7 15 -16 15 -21 0 -5 13 -37 29 -71 16 -35 36 -85 45 -112 19
-56 19 -56 -73 -140 -24 -23 -51 -48 -60 -56 -9 -9 -35 -29 -56 -45 -22 -17
-44 -34 -50 -38 -5 -4 -39 -29 -75 -55 -36 -26 -66 -50 -68 -54 -2 -5 -8 -8
-12 -8 -5 0 -48 -27 -95 -60 -47 -33 -90 -60 -95 -60 -6 0 -10 -4 -10 -10 0
-5 -7 -10 -15 -10 -8 0 -15 -4 -15 -9 0 -10 -181 -101 -242 -122 -21 -7 -38
-17 -38 -23 0 -5 -3 -6 -6 -3 -9 9 -61 -30 -74 -54 -7 -13 -7 -25 -1 -38 10
-18 156 -105 216 -129 31 -12 331 -89 375 -97 14 -2 57 -10 95 -19 39 -8 87
-18 109 -21 21 -3 41 -7 45 -9 3 -2 31 -7 61 -11 30 -3 66 -8 80 -9 39 -5 208
-18 275 -21 150 -7 394 -16 540 -20 165 -5 173 -6 241 -24 71 -19 79 -36 80
-175 1 -116 12 -289 20 -331 3 -11 7 -36 10 -55 15 -100 26 -157 49 -259 9
-40 19 -80 20 -90 2 -9 4 -16 5 -16 2 0 50 -178 65 -240 4 -16 10 -34 14 -40
3 -5 6 -14 7 -20 1 -5 14 -50 30 -100 15 -49 29 -94 30 -100 1 -5 14 -50 29
-100 14 -50 34 -115 42 -145 9 -30 28 -68 42 -83 26 -27 28 -27 47 -10 12 10
48 56 82 103 34 47 66 90 72 97 5 7 10 15 10 18 0 3 33 51 73 106 78 111 175
215 277 300 36 30 67 56 70 60 12 13 520 392 590 439 12 8 33 23 46 33 18 14
34 17 61 12 31 -5 56 -24 139 -108 144 -146 274 -258 324 -280 8 -4 29 -16 45
-27 17 -11 37 -23 45 -26 8 -3 30 -13 48 -21 35 -15 186 -71 212 -79 8 -2 53
-15 100 -30 199 -61 349 -84 589 -89 144 -3 202 -9 229 -24 9 -5 20 -9 25 -10
41 -4 172 -63 212 -95 106 -84 121 -90 142 -57 10 16 9 37 -3 103 -8 46 -18
96 -21 113 -7 42 -129 370 -159 427 -8 15 -12 28 -10 28 2 0 -14 42 -36 93
-22 50 -41 97 -42 102 -11 39 -138 303 -171 355 -16 25 -30 47 -30 50 0 3 -12
21 -28 41 -15 20 -27 41 -27 47 0 6 -3 12 -7 14 -10 4 -93 115 -93 123 0 3
-18 30 -40 60 -48 65 -59 105 -37 137 29 44 76 87 149 134 173 112 238 156
250 167 7 7 31 24 53 39 22 15 52 38 67 50 15 13 42 34 59 48 51 39 211 199
255 255 21 27 46 57 54 65 8 9 44 50 80 90 36 40 70 78 75 84 46 50 109 134
148 196 130 212 185 406 182 640 -2 134 -7 181 -31 287 -8 37 -17 77 -19 88
-10 48 -27 112 -35 130 -8 19 -66 246 -75 293 -2 13 -6 31 -9 40 -3 9 -8 33
-10 52 -3 19 -7 46 -10 60 -8 43 -17 121 -30 265 -4 39 -9 82 -11 97 -3 15 -7
55 -10 90 -2 35 -7 74 -10 88 -3 14 -7 46 -10 71 -2 25 -7 52 -9 60 -3 8 -8
25 -10 39 -3 14 -8 36 -11 50 -3 14 -10 45 -15 70 -9 41 -15 69 -25 110 -2 8
-4 15 -5 15 -1 0 -3 9 -5 20 -4 20 -7 33 -44 165 -12 41 -23 84 -25 96 -2 11
-6 26 -10 33 -4 6 -9 22 -12 34 -8 45 -52 173 -80 232 -74 159 -221 327 -379
433 -49 33 -167 99 -262 147 -95 47 -175 90 -178 95 -4 6 -10 8 -14 6 -4 -3
-17 4 -29 14 -12 11 -24 20 -28 20 -12 0 -148 104 -203 155 -29 27 -83 86
-118 130 -36 44 -105 117 -152 163 -83 81 -252 204 -318 233 -18 8 -33 18 -33
22 0 5 -4 6 -9 3 -5 -4 -11 -3 -13 2 -9 22 -231 99 -333 117 -22 3 -51 9 -65
11 -27 5 -298 12 -303 8z m-1252 -2642 c-3 -3 -11 0 -18 7 -9 10 -8 11 6 5 10
-3 15 -9 12 -12z"/>
</g>
</svg>
